<?xml version="1.0" encoding="utf-8"?>
<!-- Generator: Adobe Illustrator 23.0.3, SVG Export Plug-In . SVG Version: 6.00 Build 0)  -->
<svg version="1.1" id="Layer_1" xmlns="http://www.w3.org/2000/svg" xmlns:xlink="http://www.w3.org/1999/xlink" x="0px" y="0px"
	 viewBox="0 0 512 512" style="enable-background:new 0 0 512 512;" xml:space="preserve">
<style type="text/css">
	.st0{fill:#F4F4F4;}
	.st1{fill:#FFFFFF;}
	.st2{fill:none;stroke:#C4C4C4;stroke-width:13;stroke-linecap:round;stroke-linejoin:round;stroke-miterlimit:10;}
	.st3{fill:none;stroke:#FEE67C;stroke-width:13;stroke-linecap:round;stroke-linejoin:round;stroke-miterlimit:10;}
</style>
<path class="st0" d="M350,244.1c-6-63-61.9-112.3-130-112.3c-72.1,0-130.6,55.3-130.6,123.5c0,6.6,0.6,13.1,1.6,19.4l0,0
	c-45.3,5.3-80.6,44.9-80.6,92.9c0,51.6,40.8,93.5,91.1,93.5h333.9c36.6,0,66.3-26.5,66.3-59.2c0-29.5-24.2-54-55.9-58.4l0,0
	c0-51.7-40.6-99.6-90.9-99.6C353.2,244,351.5,244,350,244.1"/>
<path class="st1" d="M301.1,244.1c-5.1-63-52.5-113.3-110.6-109.2c-36.6,2.6-101.1,52.1-101.1,120.4c0,6.6,1.6,19.4,1.6,19.4
	c-42.1,3.8-80.6,44.9-80.6,92.9c0,51.6,34.9,93.5,78,93.5h285.8c31.3,0,56.7-26.5,56.7-59.2c0-29.5-20.8-54-47.9-58.4l0,0
	c0-51.7-34.7-99.6-77.8-99.6C303.8,244,302.4,244,301.1,244.1c-22.8,1.4-43,14.6-56.5,34.6"/>
<path class="st2" d="M435.3,461.2c36.6,0,66.3-26.5,66.3-59.2c0-29.5-24.2-54-55.9-58.4l0,0c0-51.7-45.4-99.5-95.7-99.5
	c-1.6,0,1.6-0.1,0,0c-26.6,1.4-50.2,14.6-66,34.6"/>
<path class="st2" d="M350,244.1c-6-63-61.9-112.3-130-112.3c-72.1,0-130.6,55.3-130.6,123.5c0,6.6,0.6,13.1,1.6,19.4l0,0
	c-45.3,5.3-80.6,44.9-80.6,92.9c0,51.6,40.8,93.5,91.1,93.5h333.9"/>
<path class="st3" d="M302.5,121.7c11.4-5.2,24.1-8.1,37.5-8.1c50.2,0,90.9,40.7,90.9,90.9c0,10.9-1.9,21.4-5.4,31.1"/>
<line class="st3" x1="341" y1="50.8" x2="341" y2="86.8"/>
<line class="st3" x1="492.3" y1="204.5" x2="456.4" y2="204.5"/>
<line class="st3" x1="448.1" y1="96.2" x2="422.6" y2="121.6"/>
</svg>
