<?xml version="1.0" encoding="utf-8"?>
<!-- Generator: Adobe Illustrator 23.0.3, SVG Export Plug-In . SVG Version: 6.00 Build 0)  -->
<svg version="1.1" id="Capa_1" xmlns="http://www.w3.org/2000/svg" xmlns:xlink="http://www.w3.org/1999/xlink" x="0px" y="0px"
	 viewBox="0 0 378 314" style="enable-background:new 0 0 378 314;" xml:space="preserve">
<style type="text/css">
	.st0{fill:#C4C4C4;}
</style>
<g>
	<g>
		<g>
			<path class="st0" d="M301,21c-39.7,0-72,32.3-72,72c0,4.4,3.6,8,8,8s8-3.6,8-8c0-30.9,25.1-56,56-56s56,25.1,56,56
				s-25.1,56-56,56H13c-4.4,0-8,3.6-8,8s3.6,8,8,8h288c39.7,0,72-32.3,72-72S340.7,21,301,21z"/>
			<path class="st0" d="M301,170H13c-7.2,0-13-5.8-13-13c0-7.2,5.8-13,13-13h288c28.1,0,51-22.9,51-51s-22.9-51-51-51
				s-51,22.9-51,51c0,7.2-5.8,13-13,13s-13-5.8-13-13c0-42.5,34.5-77,77-77s77,34.5,77,77S343.5,170,301,170z M13,154
				c-1.7,0-3,1.3-3,3s1.3,3,3,3h288c36.9,0,67-30.1,67-67s-30.1-67-67-67s-67,30.1-67,67c0,1.7,1.3,3,3,3s3-1.3,3-3
				c0-33.6,27.4-61,61-61s61,27.4,61,61s-27.4,61-61,61H13z"/>
		</g>
	</g>
	<g>
		<g>
			<path class="st0" d="M149,5c-30.9,0-56,25.1-56,56c0,4.4,3.6,8,8,8s8-3.6,8-8c0-22.1,17.9-40,40-40s40,17.9,40,40s-17.9,40-40,40
				H13c-4.4,0-8,3.6-8,8s3.6,8,8,8h136c30.9,0,56-25.1,56-56S179.9,5,149,5z"/>
			<path class="st0" d="M149,122H13c-7.2,0-13-5.8-13-13s5.8-13,13-13h136c19.3,0,35-15.7,35-35s-15.7-35-35-35s-35,15.7-35,35
				c0,7.2-5.8,13-13,13s-13-5.8-13-13c0-33.6,27.4-61,61-61s61,27.4,61,61S182.6,122,149,122z M13,106c-1.7,0-3,1.3-3,3s1.3,3,3,3
				h136c28.1,0,51-22.9,51-51s-22.9-51-51-51S98,32.9,98,61c0,1.7,1.3,3,3,3s3-1.3,3-3c0-24.8,20.2-45,45-45s45,20.2,45,45
				s-20.2,45-45,45H13z"/>
		</g>
	</g>
	<g>
		<g>
			<path class="st0" d="M285,197H13c-4.4,0-8,3.6-8,8s3.6,8,8,8h272c22.1,0,40,17.9,40,40s-17.9,40-40,40s-40-17.9-40-40
				c0-4.4-3.6-8-8-8s-8,3.6-8,8c0,30.9,25.1,56,56,56s56-25.1,56-56S315.9,197,285,197z"/>
			<path class="st0" d="M285,314c-33.6,0-61-27.4-61-61c0-7.2,5.8-13,13-13s13,5.8,13,13c0,19.3,15.7,35,35,35s35-15.7,35-35
				s-15.7-35-35-35H13c-7.2,0-13-5.8-13-13s5.8-13,13-13h272c33.6,0,61,27.4,61,61S318.6,314,285,314z M237,250c-1.7,0-3,1.3-3,3
				c0,28.1,22.9,51,51,51s51-22.9,51-51s-22.9-51-51-51H13c-1.7,0-3,1.3-3,3s1.3,3,3,3h272c24.8,0,45,20.2,45,45s-20.2,45-45,45
				s-45-20.2-45-45C240,251.3,238.7,250,237,250z"/>
		</g>
	</g>
</g>
</svg>
